<svg id="레이어_1" data-name="레이어 1" xmlns="http://www.w3.org/2000/svg" xmlns:xlink="http://www.w3.org/1999/xlink" viewBox="0 0 120.28 22.04"><defs><style>.cls-1{fill:none;}.cls-2{clip-path:url(#clip-path);}</style><clipPath id="clip-path" transform="translate(0 0)"><rect class="cls-1" width="120.28" height="22.04"/></clipPath></defs><title>Vector Smart Object</title><g class="cls-2"><path d="M21.05,17.05q0,5-7.18,5H7.25a9.75,9.75,0,0,1-5.19-1.1A4.28,4.28,0,0,1,0,17.09V5.1A4.4,4.4,0,0,1,2.11,1.21,9.21,9.21,0,0,1,7.25.07h6.66q7.14,0,7.14,5Zm-4.31-.79V6a2.39,2.39,0,0,0-.9-2.14,5.5,5.5,0,0,0-3-.6H8.28a5.62,5.62,0,0,0-3,.6A2.39,2.39,0,0,0,4.37,6V16.17a2.43,2.43,0,0,0,1,2.09,5.39,5.39,0,0,0,2.92.57h4.59a5.8,5.8,0,0,0,2.94-.57,2.16,2.16,0,0,0,.92-2" transform="translate(0 0)"/><path d="M47.42,9.05a4,4,0,0,1-1.74,3.46,7.92,7.92,0,0,1-4.75,1.26H30.23V22H25.86V0H40.72A9,9,0,0,1,45.4,1.08a3.76,3.76,0,0,1,2,3.25q0,2.22,0,4.72M43,8V5.41q0-2.22-3.49-2.22H30.23V10.5h9.21Q43,10.5,43,8" transform="translate(0 0)"/><path d="M74.64,22H70l-2.61-5.38H55.48L52.87,22H48.19l9.76-20a4,4,0,0,1,6.94,0ZM66,13.65,61.19,3.87l-4.33,9.78Z" transform="translate(0 0)"/><path d="M86.59,8.13a39.16,39.16,0,0,0-5.21.18,2.07,2.07,0,0,0-1.54,2.22V22h-4V9.76q0-4.46,6.26-4.46h4.48Z" transform="translate(0 0)"/><polygon points="99.4 8.53 94.5 8.53 94.5 22.04 90.64 22.04 90.64 0 94.5 0 94.5 5.76 99.4 5.76 99.4 8.53"/><path d="M120.28,8.35H110.06a5,5,0,0,0-2.07.33,1.35,1.35,0,0,0-.94,1.21v.68q0,1.71,3.1,1.71h5.05a5.81,5.81,0,0,1,3.61,1.08,3.31,3.31,0,0,1,1.42,2.75v2a3.58,3.58,0,0,1-1.43,2.79,3.71,3.71,0,0,1-1.8.94,10.9,10.9,0,0,1-2.26.18H103.18V19.2h10.52a2.83,2.83,0,0,0,2.18-.64,2.87,2.87,0,0,0,.4-1.76q0-1.69-2.53-1.69H109a7.7,7.7,0,0,1-4-.95,3.13,3.13,0,0,1-1.76-2.75V9.21a3.34,3.34,0,0,1,2-3A7.65,7.65,0,0,1,109,5.52h11.25Z" transform="translate(0 0)"/></g></svg>